<svg width="92" height="13" viewBox="0 0 92 13" fill="none" xmlns="http://www.w3.org/2000/svg">
<path d="M3.73022 12.7879V2.39583L0.673275 4.43786L0 3.3259L3.82117 0.778412H5.18592V12.7879H3.73022ZM13.4025 12.9497C12.9537 12.9497 12.4806 12.9193 11.9832 12.8586C11.4858 12.798 11.0067 12.7374 10.5457 12.6565C10.0969 12.5756 9.72079 12.4948 9.41752 12.424L9.58127 11.2614C9.88454 11.312 10.2485 11.3727 10.6731 11.4435C11.0976 11.5041 11.5344 11.5546 11.9832 11.6051C12.4442 11.6455 12.8688 11.6557 13.257 11.6557C14.0818 11.6557 14.7308 11.4232 15.2039 10.9481C15.6891 10.473 15.9318 9.79567 15.9318 8.89597C15.9318 8.28942 15.8286 7.81427 15.6224 7.47056C15.4162 7.12686 15.125 6.87415 14.749 6.73263C14.3729 6.58099 13.9363 6.51026 13.4389 6.51026C13.075 6.51026 12.711 6.55068 12.3471 6.62144C11.9832 6.6922 11.6496 6.7832 11.3463 6.8944C11.0431 7.0056 10.7943 7.10664 10.6003 7.21784L9.61767 7.01571L9.94524 0.778412H16.9508V2.09263H11.1462L10.8186 5.92386C11.0248 5.83288 11.2796 5.73186 11.5829 5.62066C11.8862 5.50946 12.2137 5.41846 12.5655 5.3477C12.9173 5.25672 13.263 5.21628 13.6027 5.21628C14.3912 5.21628 15.0705 5.33757 15.6406 5.58019C16.2108 5.81269 16.6536 6.18672 16.969 6.71239C17.2844 7.21784 17.442 7.90528 17.442 8.76454C17.442 9.68446 17.2783 10.4629 16.9508 11.0795C16.6354 11.6962 16.1744 12.1611 15.5678 12.4745C14.9734 12.798 14.2517 12.9497 13.4025 12.9497ZM19.7095 12.7879V11.5546L23.1668 7.92542C23.6641 7.40986 24.0948 6.94496 24.4587 6.53049C24.8226 6.10592 25.1017 5.69134 25.2957 5.28698C25.4898 4.88262 25.5869 4.43791 25.5869 3.98301C25.5869 3.19451 25.3685 2.64852 24.9318 2.36547C24.5072 2.0622 23.8643 1.91061 23.003 1.91061C22.6876 1.91061 22.3358 1.9309 21.9476 1.98145C21.5595 2.01177 21.1834 2.06221 20.8194 2.12286C20.4677 2.17341 20.1644 2.22399 19.9097 2.28464L19.8005 1.09185C20.0552 1.01098 20.3706 0.940122 20.7467 0.869359C21.1228 0.798596 21.5291 0.738011 21.9658 0.687466C22.4147 0.626812 22.8513 0.596396 23.2759 0.596396C24.5497 0.596396 25.502 0.849131 26.1328 1.36469C26.7757 1.87014 27.0972 2.68902 27.0972 3.82123C27.0972 4.40755 27.0001 4.94328 26.806 5.41841C26.624 5.89353 26.345 6.35856 25.969 6.82357C25.605 7.26837 25.138 7.77381 24.5679 8.3298L21.4199 11.5142H27.3883V12.7879H19.7095ZM36.7098 12.7879V1.52647H32.8704V0.212373H41.9685V1.52647H38.1655V12.7879H36.7098ZM42.6296 12.7879L46.0687 0.212373H49.2166L52.6375 12.7879H51.1818L50.2902 9.60355H44.9769L44.0853 12.7879H42.6296ZM45.2862 8.30956H49.9808L48.1067 1.45576H47.1605L45.2862 8.30956ZM54.5794 12.7879V0.212373H59.1649C59.9898 0.212373 60.6752 0.323527 61.2211 0.545925C61.7791 0.758214 62.1976 1.10194 62.4766 1.57706C62.7677 2.05219 62.9133 2.66878 62.9133 3.41685C62.9133 3.95262 62.8466 4.4075 62.7132 4.78153C62.5919 5.14546 62.416 5.44875 62.1855 5.69137C61.955 5.93398 61.6699 6.13615 61.3303 6.308C61.6942 6.42931 62.0217 6.61129 62.3128 6.83369C62.6161 7.0662 62.8526 7.37962 63.0225 7.76376C63.2044 8.15801 63.2954 8.65333 63.2954 9.25987C63.2954 9.91696 63.2044 10.473 63.0225 10.9279C62.8405 11.3828 62.5736 11.7467 62.2218 12.0196C61.8822 12.2926 61.4697 12.4846 60.9845 12.6059C60.5114 12.7272 59.9777 12.7879 59.3833 12.7879H54.5794ZM56.0351 11.5142H59.3286C59.8381 11.5142 60.2749 11.4434 60.6388 11.312C61.0148 11.1806 61.306 10.9481 61.5122 10.6246C61.7184 10.2809 61.8215 9.8057 61.8215 9.19916C61.8215 8.73415 61.7306 8.35 61.5486 8.05684C61.3788 7.76368 61.1604 7.55149 60.8936 7.39985C60.6267 7.25833 60.3477 7.1572 60.0565 7.10665C59.7654 7.06622 59.4985 7.03594 59.2559 7.03594H56.0351V11.5142ZM56.0351 5.7622H59.2377C60.0141 5.7622 60.5721 5.5802 60.9118 5.21628C61.2635 4.84224 61.4394 4.28622 61.4394 3.54827C61.4394 2.83053 61.2453 2.30493 60.8572 1.98145C60.4811 1.64785 59.8988 1.48599 59.1103 1.48599H56.0351V5.7622ZM65.7742 12.7879V0.212373H67.2299V11.4737H72.7251V12.7879H65.7742ZM74.4639 12.7879V0.212373H82.1608V1.50623H75.9196V5.7622H81.0691V7.03594H75.9196V11.4939H82.1608V12.7879H74.4639ZM87.9604 12.9497C87.5964 12.9497 87.1719 12.9294 86.6867 12.8788C86.2014 12.8384 85.7162 12.798 85.231 12.7373C84.7579 12.6564 84.3394 12.5959 83.9754 12.5554L84.121 11.3524C84.4728 11.3827 84.8791 11.4332 85.3401 11.4737C85.8132 11.5242 86.2742 11.5647 86.723 11.6051C87.184 11.6455 87.5722 11.6557 87.8876 11.6557C88.7732 11.6557 89.4343 11.4637 89.871 11.0593C90.3077 10.6549 90.526 10.0382 90.526 9.18904C90.526 8.72403 90.435 8.36015 90.2531 8.09731C90.0832 7.81426 89.7922 7.59184 89.3797 7.44021C88.9794 7.26835 88.4395 7.11677 87.7602 6.98535C86.8868 6.80339 86.159 6.59109 85.5767 6.34848C85.0065 6.09575 84.5759 5.73177 84.2847 5.27687C84.0057 4.81185 83.8662 4.18511 83.8662 3.39661C83.8662 2.58789 84.03 1.93086 84.3575 1.43552C84.6972 0.940181 85.1703 0.576178 85.7768 0.343671C86.3955 0.111164 87.1112 0 87.924 0C88.2879 0 88.7004 0.0202871 89.1613 0.0708321C89.6345 0.101159 90.0954 0.151719 90.5442 0.212373C91.0052 0.262918 91.3994 0.313374 91.727 0.374028L91.5996 1.5973C91.2478 1.54676 90.8415 1.50631 90.3805 1.46588C89.9195 1.42544 89.4767 1.3749 89.0521 1.34458C88.6276 1.30414 88.2879 1.28386 88.0332 1.28386C87.1476 1.28386 86.4744 1.45571 86.0134 1.77919C85.5646 2.10268 85.3401 2.61825 85.3401 3.30566C85.3401 3.84144 85.4372 4.24576 85.6313 4.52881C85.8375 4.80175 86.165 5.02418 86.6139 5.18592C87.0627 5.33755 87.651 5.49928 88.3789 5.67113C89.0097 5.82277 89.5495 5.9745 89.9984 6.14635C90.4593 6.3182 90.8354 6.53049 91.1265 6.78322C91.4298 7.02584 91.6481 7.33914 91.7816 7.71317C91.9271 8.07709 91.9999 8.53197 91.9999 9.07786C91.9999 9.99778 91.8361 10.7459 91.5086 11.312C91.1811 11.8882 90.7141 12.3027 90.1075 12.5655C89.501 12.8284 88.7852 12.9497 87.9604 12.9497Z" fill="white"/>
</svg>
