<svg width="112" height="112" viewBox="0 0 112 112" fill="none" xmlns="http://www.w3.org/2000/svg">
<path d="M1.33618 12.6897V0.210742H2.7807V11.3856H8.23375V12.6897H1.33618ZM14.401 12.8703C13.101 12.8703 12.0898 12.6295 11.3675 12.148C10.6573 11.6665 10.1578 10.9542 9.86886 10.0213C9.592 9.06834 9.45356 7.89467 9.45356 6.51034C9.45356 5.12601 9.598 3.95233 9.88691 2.98932C10.1758 2.02631 10.6754 1.29408 11.3856 0.792516C12.1079 0.270886 13.113 0.0100412 14.401 0.0100412C15.689 0.0100412 16.6882 0.270866 17.3984 0.772434C18.1207 1.274 18.6262 2.01628 18.9151 2.98932C19.204 3.95233 19.3485 5.12601 19.3485 6.51034C19.3485 7.93479 19.204 9.11854 18.9151 10.0715C18.6383 11.0145 18.1387 11.7166 17.4165 12.1881C16.7062 12.6395 15.7011 12.8703 14.401 12.8703ZM14.401 11.5863C15.352 11.5863 16.0743 11.4057 16.5678 11.0445C17.0613 10.6834 17.3984 10.1317 17.579 9.38934C17.7595 8.62695 17.8498 7.67398 17.8498 6.51034C17.8498 5.39686 17.7535 4.45397 17.5609 3.68155C17.3803 2.89911 17.0433 2.30724 16.5497 1.90598C16.0562 1.50473 15.34 1.29408 14.401 1.29408C13.4621 1.29408 12.7458 1.50473 12.2523 1.90598C11.7588 2.30724 11.4157 2.88906 11.2231 3.66147C11.0425 4.43388 10.9522 5.38683 10.9522 6.51034C10.9522 7.63385 11.0425 8.57686 11.2231 9.32921C11.4037 10.0816 11.7407 10.6433 12.2343 11.0245C12.7278 11.4056 13.45 11.5863 14.401 11.5863ZM24.0462 12.6897L20.796 0.210742H22.2947L25.1296 11.4056H26.1227L28.9575 0.210742H30.4562L27.2241 12.6897H24.0462ZM32.4063 12.6897V0.210742H40.0442V1.49466H33.8508V5.71795H38.9608V6.98191H33.8508V11.4056H40.0442V12.6897H32.4063ZM42.3865 12.6897V0.210742H47.027C47.9058 0.210742 48.6401 0.341051 49.2299 0.611898C49.8318 0.872713 50.2832 1.29402 50.5841 1.85578C50.8851 2.4075 51.0355 3.12977 51.0355 4.0025C51.0355 4.91535 50.8489 5.68783 50.4758 6.3198C50.1146 6.94175 49.5429 7.38306 48.7604 7.63385L51.1439 12.6897H49.5369L47.334 7.94488H43.831V12.6897H42.3865ZM43.831 6.68092H47.0451C47.659 6.68092 48.1465 6.56057 48.5076 6.32984C48.8808 6.10916 49.1456 5.7881 49.3021 5.39687C49.4586 4.98559 49.5369 4.52415 49.5369 4.02258C49.5369 3.16992 49.3322 2.52788 48.9229 2.10656C48.5137 1.68524 47.8817 1.47458 47.027 1.47458H43.831V6.68092ZM53.5133 12.6897V0.210742H54.9578V11.3856H60.4109V12.6897H53.5133ZM65.5479 12.8502C65.1868 12.8502 64.7655 12.8301 64.284 12.7799C63.8024 12.7398 63.3209 12.6997 62.8394 12.6395C62.37 12.5592 61.9547 12.4991 61.5935 12.459L61.738 11.2652C62.0871 11.2953 62.4903 11.3454 62.9478 11.3856C63.4172 11.4357 63.8747 11.4759 64.3201 11.516C64.7775 11.5561 65.1627 11.5662 65.4757 11.5662C66.3544 11.5662 67.0105 11.3756 67.4438 10.9744C67.8772 10.5731 68.0939 9.9611 68.0939 9.11847C68.0939 8.65703 68.0036 8.29594 67.823 8.03513C67.6545 7.75425 67.3656 7.53353 66.9563 7.38306C66.5591 7.21253 66.0234 7.06211 65.3493 6.9317C64.4826 6.75114 63.7603 6.54047 63.1825 6.29972C62.6167 6.04894 62.1894 5.68775 61.9005 5.23634C61.6236 4.7749 61.4852 4.15297 61.4852 3.37052C61.4852 2.56801 61.6477 1.91603 61.9727 1.4245C62.3098 0.93296 62.7793 0.571753 63.3811 0.341032C63.9951 0.110311 64.7053 0 65.5118 0C65.8729 0 66.2822 0.0201313 66.7396 0.0702881C67.2091 0.100382 67.6665 0.150554 68.1119 0.210742C68.5694 0.260899 68.9606 0.310967 69.2856 0.371155L69.1592 1.58503C68.8101 1.53488 68.4068 1.49475 67.9494 1.45462C67.492 1.41449 67.0526 1.36434 66.6313 1.33425C66.21 1.29412 65.8729 1.274 65.6201 1.274C64.7414 1.274 64.0733 1.44453 63.6158 1.76553C63.1705 2.08653 62.9478 2.59814 62.9478 3.28027C62.9478 3.81194 63.0441 4.21315 63.2367 4.49403C63.4413 4.76487 63.7663 4.98559 64.2117 5.14609C64.6571 5.29656 65.241 5.45704 65.9632 5.62758C66.5892 5.77805 67.1248 5.92861 67.5702 6.09914C68.0277 6.26968 68.4008 6.48034 68.6897 6.73112C68.9907 6.97188 69.2073 7.28277 69.3398 7.65393C69.4842 8.01506 69.5564 8.46645 69.5564 9.00814C69.5564 9.92099 69.3939 10.6634 69.0689 11.2252C68.7439 11.7969 68.2804 12.2082 67.6786 12.469C67.0767 12.7298 66.3665 12.8502 65.5479 12.8502ZM72.2468 15.5586V14.3348H79.975V15.5586H72.2468ZM83.3134 12.6897V0.210742H87.8817C88.7966 0.210742 89.5489 0.361163 90.1388 0.662104C90.7286 0.953013 91.168 1.39435 91.4569 1.99623C91.7458 2.58808 91.8902 3.34043 91.8902 4.25329C91.8902 5.15611 91.7458 5.92858 91.4569 6.57059C91.168 7.19253 90.7286 7.67398 90.1388 8.01504C89.5489 8.33605 88.7966 8.49653 87.8817 8.49653H84.758V12.6897H83.3134ZM84.758 7.23269H87.8817C88.7725 7.23269 89.4165 6.98189 89.8138 6.46026C90.211 5.93863 90.4096 5.20626 90.4096 4.25329C90.4096 3.29028 90.211 2.5881 89.8138 2.14673C89.4165 1.69531 88.7725 1.47458 87.8817 1.47458H84.758V7.23269ZM93.9988 12.6897V0.210742H95.4434V11.3856H100.896V12.6897H93.9988ZM101.52 12.6897L104.933 0.210742H108.057L111.451 12.6897H110.007L109.122 9.52979H103.85L102.965 12.6897H101.52ZM104.157 8.24575H108.815L106.955 1.44458H106.016L104.157 8.24575ZM3.97242 112V106.764L0 99.5212H1.62509L4.67662 105.319L7.74621 99.5212H9.3713L5.41694 106.764V112H3.97242ZM11.0696 112V99.5212H18.7075V100.805H12.5141V105.028H17.6241V106.292H12.5141V110.716H18.7075V112H11.0696ZM21.0498 112V99.5212H25.6903C26.5691 99.5212 27.3033 99.6515 27.8932 99.9223C28.4951 100.183 28.9465 100.604 29.2474 101.166C29.5484 101.718 29.6988 102.44 29.6988 103.313C29.6988 104.226 29.5123 104.998 29.1391 105.63C28.778 106.252 28.2062 106.693 27.4237 106.944L29.8072 112H28.2002L25.9973 107.255H22.4943V112H21.0498ZM22.4943 105.991H25.7084C26.3223 105.991 26.8098 105.871 27.1709 105.64C27.5441 105.42 27.8089 105.099 27.9654 104.707C28.1219 104.296 28.2002 103.835 28.2002 103.333C28.2002 102.48 27.9955 101.838 27.5862 101.417C27.177 100.996 26.545 100.785 25.6903 100.785H22.4943V105.991Z" fill="white"/>
</svg>
