<svg width="87" height="14" viewBox="0 0 87 14" fill="none" xmlns="http://www.w3.org/2000/svg">
<path d="M3.18282 10.276C2.89991 10.276 2.56949 10.2557 2.1926 10.2153C1.81572 10.185 1.43783 10.1446 1.06094 10.1042C0.693149 10.0435 0.367792 10.0031 0.0848747 9.9627L0.198041 9.02308C0.471864 9.05339 0.787118 9.08368 1.14582 9.1241C1.51361 9.16452 1.8723 9.1948 2.2209 9.22512C2.57959 9.25543 2.88071 9.26557 3.12624 9.26557C3.81434 9.26557 4.32864 9.11405 4.66814 8.80082C5.00764 8.48759 5.17739 8.00253 5.17739 7.34575C5.17739 6.982 5.10665 6.69912 4.96519 6.49704C4.83283 6.27475 4.6065 6.11307 4.2862 5.98172C3.97499 5.85036 3.55566 5.73924 3.02721 5.62809C2.34821 5.48664 1.78239 5.32498 1.32972 5.133C0.886146 4.94102 0.551694 4.65803 0.325361 4.30439C0.108121 3.94064 0 3.4557 0 2.84945C0 2.21288 0.127319 1.70765 0.381944 1.31359C0.645663 0.929633 1.01345 0.646751 1.48531 0.464876C1.96627 0.293105 2.52302 0.202157 3.15453 0.202157C3.43745 0.202157 3.75775 0.222292 4.11645 0.252604C4.48424 0.282917 4.84293 0.323329 5.19153 0.37385C5.55022 0.404162 5.85638 0.454678 6.11101 0.495095L6.01198 1.44495C5.73816 1.40453 5.42292 1.37425 5.06422 1.34393C4.70552 1.30352 4.36198 1.27311 4.03157 1.24279C3.70116 1.22259 3.43745 1.20246 3.23941 1.20246C2.55131 1.20246 2.02792 1.33382 1.66922 1.58642C1.32062 1.83903 1.14582 2.23302 1.14582 2.77865C1.14582 3.19292 1.2216 3.5062 1.37215 3.71839C1.53281 3.94068 1.78743 4.11246 2.13602 4.23371C2.48461 4.35496 2.94234 4.48632 3.50817 4.61768C3.99822 4.72882 4.41856 4.85006 4.76715 4.98141C5.12585 5.11277 5.41786 5.27442 5.64419 5.47651C5.87962 5.66849 6.04937 5.90084 6.15344 6.19386C6.26661 6.47678 6.32319 6.83048 6.32319 7.25485C6.32319 7.97225 6.19588 8.55827 5.94126 9.00285C5.68663 9.43733 5.32389 9.77073 4.85203 9.97282C4.38016 10.1749 3.82444 10.276 3.18282 10.276ZM8.00654 10.1446V0H9.09578V5.9716L10.185 5.93115L12.1654 3.07171H13.4244L11.1469 6.33534L13.5376 10.1446H12.2786L10.2133 6.89112L9.09578 6.95168V10.1446H8.00654ZM16.3587 10.2861C15.708 10.2861 15.2128 10.1042 14.8733 9.73032C14.5338 9.36657 14.3641 8.83109 14.3641 8.1238C14.3641 7.659 14.4449 7.28515 14.6046 6.99213C14.7652 6.69911 15.0057 6.47679 15.326 6.32522C15.6564 6.16356 16.0616 6.0626 16.5426 6.03229L18.721 5.82001V5.20367C18.721 4.72878 18.6129 4.38524 18.3957 4.19326C18.1885 3.99117 17.8773 3.89021 17.462 3.89021C17.2266 3.89021 16.9437 3.90022 16.6133 3.92042C16.293 3.94063 15.9727 3.96091 15.6514 3.99122C15.3311 4.02154 15.0482 4.0518 14.8026 4.07201L14.746 3.24352C14.9724 3.193 15.2462 3.14247 15.5665 3.10205C15.8878 3.05153 16.2223 3.01113 16.5709 2.99092C16.9205 2.9505 17.2408 2.93024 17.5328 2.93024C18.0703 2.93024 18.5088 3.01107 18.8483 3.18284C19.1878 3.34451 19.4334 3.5971 19.5839 3.93054C19.7446 4.26398 19.8244 4.68836 19.8244 5.20367V8.79071C19.8436 8.99279 19.9234 9.14429 20.0649 9.23523C20.2164 9.33627 20.4044 9.39696 20.6307 9.42727L20.5883 10.2861C20.3811 10.2861 20.1922 10.276 20.0224 10.2456C19.8527 10.2254 19.693 10.1952 19.5415 10.1446C19.4192 10.0941 19.301 10.0435 19.1878 9.97282C19.0848 9.91219 18.9807 9.83137 18.8766 9.73032C18.6978 9.81116 18.4664 9.89198 18.1835 9.97282C17.9107 10.0638 17.6136 10.1346 17.2923 10.1851C16.9811 10.2558 16.6699 10.2861 16.3587 10.2861ZM16.5426 9.36659C16.7972 9.36659 17.0619 9.34644 17.3347 9.29591C17.6086 9.24539 17.8682 9.19483 18.1128 9.1241C18.3583 9.06347 18.5614 9.00292 18.721 8.94229V6.63851L16.6699 6.83043C16.2455 6.87085 15.9393 6.99209 15.7504 7.20428C15.5715 7.40636 15.4816 7.70949 15.4816 8.09345C15.4816 8.48752 15.5715 8.80079 15.7504 9.02308C15.9302 9.25548 16.194 9.36659 16.5426 9.36659ZM22.0029 10.1446V0H23.0921V10.1446H22.0029ZM27.7228 10.2861C27.0155 10.2861 26.4547 10.1446 26.0395 9.8718C25.6343 9.59898 25.3423 9.19487 25.1624 8.65935C24.9836 8.12383 24.8937 7.45696 24.8937 6.64863C24.8937 5.75946 25.0169 5.04206 25.2615 4.49643C25.507 3.95081 25.8515 3.5567 26.2941 3.3142C26.7377 3.06159 27.2611 2.93024 27.8643 2.93024C28.808 2.93024 29.5194 3.19297 30.0003 3.71839C30.4813 4.24381 30.7217 5.08245 30.7217 6.24443L30.6652 7.07292H26.0112C26.0213 7.81053 26.1577 8.36628 26.4214 8.74014C26.6861 9.12409 27.162 9.30603 27.8501 9.30603C28.1149 9.30603 28.4018 9.30602 28.713 9.29591C29.0344 9.27571 29.3496 9.25544 29.6608 9.23523C29.972 9.22513 30.2367 9.20499 30.453 9.18478L30.4813 10.0436C30.2549 10.084 29.9771 10.1244 29.6467 10.1547C29.3264 10.1952 28.996 10.2254 28.6565 10.2456C28.317 10.276 28.0057 10.2861 27.7228 10.2861ZM26.0112 6.18375H29.6184C29.6184 5.31479 29.4769 4.70862 29.194 4.37519C28.9212 4.02154 28.4776 3.84975 27.8643 3.84975C27.2702 3.84975 26.8135 4.03165 26.4921 4.3853C26.1718 4.74905 26.0112 5.3451 26.0112 6.18375ZM35.6394 10.1446V0.37385H41.6231V1.37415H36.7711V4.68835H40.7744V5.67854H36.7711V9.14433H41.6231V10.1446H35.6394ZM43.2883 10.1446V3.07171H44.3775V3.5668C44.5382 3.47587 44.7362 3.37479 44.9717 3.28386C45.2172 3.19292 45.4759 3.1121 45.7497 3.04137C46.0235 2.97064 46.2872 2.93024 46.5419 2.93024C47.1926 2.93024 47.6877 3.05146 48.0272 3.28386C48.3758 3.50615 48.6162 3.88009 48.7486 4.3853C48.881 4.90061 48.9467 5.56748 48.9467 6.39602V10.1446H47.8433V6.43635C47.8433 5.8301 47.8059 5.33505 47.7301 4.9713C47.6644 4.59744 47.523 4.3347 47.3057 4.17303C47.0986 4.00126 46.7773 3.92042 46.3438 3.92042C46.1084 3.92042 45.8628 3.95082 45.6082 4.00134C45.3627 4.05186 45.1323 4.12254 44.9151 4.20337C44.6978 4.2741 44.519 4.3549 44.3775 4.42563V10.1446H43.2883ZM49.6408 13.2971L49.2023 12.4484C49.561 12.2463 49.849 12.0543 50.0652 11.8825C50.2915 11.7209 50.4613 11.5592 50.5744 11.3874C50.6977 11.2157 50.7826 11.0237 50.829 10.7913C50.8765 10.569 50.8998 10.2861 50.8998 9.9426V3.07171H52.0032V9.9627C52.0032 10.3972 51.9658 10.7711 51.89 11.0743C51.8243 11.3976 51.702 11.6805 51.5222 11.923C51.3524 12.1756 51.112 12.3978 50.8008 12.61C50.4997 12.8222 50.1127 13.0546 49.6408 13.2971ZM50.8998 1.51563V0.24249H52.0032V1.51563H50.8998ZM56.738 10.2861C55.9458 10.2861 55.3284 10.1446 54.8849 9.8718C54.4514 9.59898 54.1442 9.18473 53.9654 8.629C53.7956 8.07327 53.7108 7.37613 53.7108 6.52738C53.7108 5.70894 53.8047 5.04208 53.9937 4.51666C54.1917 3.99124 54.512 3.58702 54.9556 3.32431C55.3992 3.0616 55.9933 2.93024 56.738 2.93024C57.4928 2.93024 58.0909 3.0616 58.5345 3.32431C58.9781 3.58702 59.2933 3.99124 59.4823 4.51666C59.6803 5.04208 59.7793 5.70894 59.7793 6.52738C59.7793 7.37613 59.6894 8.07327 59.5106 8.629C59.3408 9.18473 59.0346 9.59898 58.5911 9.8718C58.1576 10.1446 57.5392 10.2861 56.738 10.2861ZM56.738 9.33625C57.2846 9.33625 57.6948 9.2454 57.9687 9.05342C58.2425 8.86145 58.4213 8.54818 58.5062 8.13391C58.6002 7.71964 58.6477 7.18415 58.6477 6.52738C58.6477 5.87061 58.5911 5.35526 58.4779 4.9713C58.3647 4.57724 58.1717 4.30447 57.8979 4.1327C57.6241 3.96093 57.2381 3.88009 56.738 3.88009C56.2479 3.88009 55.8609 3.96093 55.578 4.1327C55.3042 4.30447 55.1112 4.57724 54.998 4.9713C54.8849 5.35526 54.8283 5.87061 54.8283 6.52738C54.8283 7.18415 54.8707 7.71964 54.9556 8.13391C55.0496 8.54818 55.2335 8.86145 55.5073 9.05342C55.7811 9.2454 56.1913 9.33625 56.738 9.33625ZM62.9803 13.2668L63.8998 10.1446H62.8389L60.8443 3.07171H61.9477L63.6735 9.1949H64.1544L65.8944 3.07171H66.9978L64.0837 13.2668H62.9803ZM71.0768 10.2861C70.2846 10.2861 69.6673 10.1446 69.2237 9.8718C68.7902 9.59898 68.4841 9.18473 68.3042 8.629C68.1345 8.07327 68.0496 7.37613 68.0496 6.52738C68.0496 5.70894 68.1446 5.04208 68.3325 4.51666C68.5305 3.99124 68.8519 3.58702 69.2944 3.32431C69.738 3.0616 70.3321 2.93024 71.0768 2.93024C71.8316 2.93024 72.4308 3.0616 72.8733 3.32431C73.3169 3.58702 73.6332 3.99124 73.8211 4.51666C74.0191 5.04208 74.1182 5.70894 74.1182 6.52738C74.1182 7.37613 74.0293 8.07327 73.8494 8.629C73.6797 9.18473 73.3735 9.59898 72.9299 9.8718C72.4964 10.1446 71.8791 10.2861 71.0768 10.2861ZM71.0768 9.33625C71.6244 9.33625 72.0347 9.2454 72.3075 9.05342C72.5813 8.86145 72.7602 8.54818 72.845 8.13391C72.94 7.71964 72.9865 7.18415 72.9865 6.52738C72.9865 5.87061 72.9299 5.35526 72.8168 4.9713C72.7036 4.57724 72.5106 4.30447 72.2368 4.1327C71.964 3.96093 71.577 3.88009 71.0768 3.88009C70.5867 3.88009 70.1998 3.96093 69.9169 4.1327C69.6441 4.30447 69.45 4.57724 69.3369 4.9713C69.2237 5.35526 69.1671 5.87061 69.1671 6.52738C69.1671 7.18415 69.2096 7.71964 69.2944 8.13391C69.3894 8.54818 69.5733 8.86145 69.8461 9.05342C70.1199 9.2454 70.5302 9.33625 71.0768 9.33625ZM78.565 10.2861C77.7728 10.2861 77.1545 10.1446 76.7119 9.8718C76.2774 9.59898 75.9713 9.18473 75.7924 8.629C75.6227 8.07327 75.5378 7.37613 75.5378 6.52738C75.5378 5.70894 75.6318 5.04208 75.8207 4.51666C76.0188 3.99124 76.3391 3.58702 76.7826 3.32431C77.2252 3.0616 77.8193 2.93024 78.565 2.93024C79.3188 2.93024 79.9179 3.0616 80.3615 3.32431C80.8041 3.58702 81.1204 3.99124 81.3093 4.51666C81.5074 5.04208 81.6064 5.70894 81.6064 6.52738C81.6064 7.37613 81.5164 8.07327 81.3376 8.629C81.1678 9.18473 80.8607 9.59898 80.4181 9.8718C79.9836 10.1446 79.3663 10.2861 78.565 10.2861ZM78.565 9.33625C79.1116 9.33625 79.5219 9.2454 79.7957 9.05342C80.0685 8.86145 80.2484 8.54818 80.3332 8.13391C80.4272 7.71964 80.4747 7.18415 80.4747 6.52738C80.4747 5.87061 80.4181 5.35526 80.3049 4.9713C80.1918 4.57724 79.9978 4.30447 79.725 4.1327C79.4512 3.96093 79.0642 3.88009 78.565 3.88009C78.0739 3.88009 77.688 3.96093 77.405 4.1327C77.1312 4.30447 76.9382 4.57724 76.8251 4.9713C76.7119 5.35526 76.6553 5.87061 76.6553 6.52738C76.6553 7.18415 76.6978 7.71964 76.7826 8.13391C76.8766 8.54818 77.0605 8.86145 77.3343 9.05342C77.6071 9.2454 78.0174 9.33625 78.565 9.33625ZM83.3362 10.1446V3.07171H84.4254V4.02144C84.6043 3.90019 84.8306 3.76895 85.1044 3.62749C85.3772 3.47592 85.6794 3.33442 86.0098 3.20307C86.3392 3.07171 86.6696 2.97064 87 2.92012V4.03156C86.6787 4.10229 86.3533 4.19324 86.0239 4.30439C85.6935 4.40543 85.3873 4.51665 85.1044 4.6379C84.8306 4.76926 84.6043 4.87026 84.4254 4.9713V10.1446H83.3362Z" fill="#B5B4B4"/>
</svg>
