<svg width="25" height="17" viewBox="0 0 25 17" fill="none" xmlns="http://www.w3.org/2000/svg">
<path d="M0 4.19313C0 1.64622 1.26206 0 3.81001 0C6.38176 0 7.64382 1.64622 7.64382 4.19313V12.7863C7.64382 15.3332 6.38176 17.0001 3.81001 17.0001C1.26206 17.0001 0 15.3332 0 12.7863V4.19313ZM1.83357 12.9001C1.83357 14.4014 2.4765 15.3125 3.81001 15.3125C5.16732 15.3125 5.78644 14.4014 5.78644 12.9001V4.08949C5.78644 2.56756 5.16732 1.66686 3.81001 1.66686C2.4765 1.66686 1.83357 2.56756 1.83357 4.08949V12.9001ZM12.8034 3.18876C12.1843 3.57183 11.3746 3.85144 10.4936 3.90321V2.3813C12.3033 2.30883 12.9224 1.33561 13.3511 0.165688H14.6369V16.8344H12.8034V3.18876ZM19.3015 6.94701C19.8254 6.04627 20.6588 5.57007 21.778 5.57007C23.9211 5.57007 24.8736 7.14371 24.8736 9.52496V12.7863C24.8736 15.3332 23.6592 17.0001 21.1113 17.0001C18.5633 17.0001 17.3727 15.3332 17.3727 12.7863V11.6682H19.111V12.9001C19.111 14.4014 19.7301 15.3125 21.0636 15.3125C22.3971 15.3125 23.0163 14.4014 23.0163 12.9001V9.66993C23.0163 8.1687 22.3971 7.25766 21.0636 7.25766C20.0397 7.25766 19.3491 7.83742 19.1824 9.04875V9.43182H17.4441L17.8966 0.165688H24.4688V1.83255H19.5634L19.3015 6.94701Z" fill="white"/>
</svg>
