<svg width="95" height="15" viewBox="0 0 95 15" fill="none" xmlns="http://www.w3.org/2000/svg">
<path d="M3.71779 12.7352V2.37775L0.67103 4.41298L0 3.30473L3.80843 0.765732H5.16863V12.7352H3.71779ZM8.86022 14.9618L9.67632 10.7605H11.2541L10.0209 14.9618H8.86022ZM13.5684 12.7352V11.506L17.0141 7.88891C17.5098 7.37507 17.939 6.91173 18.3018 6.49864C18.6645 6.07548 18.9425 5.66229 19.136 5.25927C19.3294 4.85626 19.4262 4.41303 19.4262 3.95965C19.4262 3.17377 19.2085 2.62961 18.7733 2.3475C18.3501 2.04524 17.7093 1.89416 16.8509 1.89416C16.5366 1.89416 16.1859 1.91438 15.799 1.96476C15.4121 1.99498 15.0374 2.04525 14.6747 2.1057C14.3241 2.15608 14.0218 2.20649 13.7679 2.26694L13.6591 1.07813C13.913 0.997523 14.2273 0.926903 14.6021 0.856376C14.9769 0.785848 15.3819 0.725466 15.8172 0.675089C16.2645 0.614637 16.6998 0.584323 17.123 0.584323C18.3924 0.584323 19.3415 0.836215 19.9702 1.35006C20.611 1.85382 20.9314 2.66997 20.9314 3.79841C20.9314 4.38277 20.8347 4.91672 20.6413 5.39026C20.4599 5.8638 20.1818 6.32728 19.807 6.79074C19.4443 7.23405 18.9788 7.73781 18.4106 8.29195L15.2731 11.4657H21.2216V12.7352H13.5684ZM28.9584 12.7352V10.4178H23.1913V9.28939L26.5826 0.765732H28.1785L24.7147 9.12828H28.9584V5.4306H30.4093V9.12828H31.9145V10.4178H30.4093V12.7352H28.9584ZM37.0972 12.9166C36.7345 12.9166 36.3416 12.8964 35.9285 12.8662C35.5255 12.8259 35.1325 12.7856 34.7497 12.7352C34.3769 12.6848 34.0545 12.6344 33.7925 12.5941L33.9336 11.4153C34.1754 11.4354 34.4777 11.4657 34.8303 11.506C35.1729 11.5363 35.5557 11.5664 35.9486 11.5967C36.3517 11.6168 36.7345 11.6269 37.0972 11.6269C38.1652 11.6269 38.9712 11.2945 39.5052 10.6295C40.0493 9.95444 40.3314 8.91661 40.3415 7.52622C40.0392 7.63704 39.7067 7.74795 39.344 7.85878C38.9813 7.96961 38.6186 8.06031 38.2559 8.13083C37.9032 8.19128 37.5809 8.22148 37.2786 8.22148C36.0192 8.22148 35.0519 7.91921 34.3769 7.33484C33.6918 6.7404 33.3593 5.81347 33.3593 4.55405C33.3593 3.73795 33.5306 3.02263 33.8631 2.43827C34.2056 1.84382 34.6791 1.39046 35.2937 1.07813C35.9285 0.745641 36.664 0.584323 37.5103 0.584323C38.5279 0.584323 39.344 0.836215 39.9788 1.35006C40.6135 1.84374 41.087 2.55909 41.3893 3.48601C41.6915 4.41294 41.8427 5.52125 41.8427 6.79074C41.8427 7.9494 41.7318 8.91664 41.5203 9.70251C41.2986 10.4884 40.9863 11.1231 40.5732 11.5967C40.1802 12.0601 39.6765 12.4027 39.0921 12.6042C38.5078 12.8158 37.8428 12.9166 37.0972 12.9166ZM37.3995 6.93181C37.7017 6.93181 38.0342 6.89152 38.3969 6.82099C38.7596 6.75047 39.1224 6.66987 39.4649 6.56911C39.8175 6.45828 40.1198 6.36757 40.3616 6.27689C40.3415 5.42049 40.2407 4.66484 40.0493 4.00995C39.8679 3.34498 39.5758 2.83121 39.1627 2.44835C38.7496 2.06549 38.1954 1.87399 37.5103 1.87399C36.6841 1.87399 36.0393 2.11577 35.5557 2.59938C35.0822 3.083 34.8403 3.73795 34.8403 4.55405C34.8403 5.38023 35.062 5.98479 35.4952 6.36766C35.9285 6.74044 36.5632 6.93181 37.3995 6.93181ZM52.6434 12.9166C51.6762 12.9166 50.8802 12.7755 50.2455 12.5035C49.6208 12.2113 49.1271 11.7881 48.7644 11.2441C48.4017 10.6899 48.1398 10.0149 47.9786 9.21892C47.8375 8.42297 47.7669 7.51624 47.7669 6.49864C47.7669 5.44073 47.8375 4.52387 47.9786 3.71785C48.1398 2.91182 48.4017 2.23677 48.7644 1.6927C49.1372 1.13856 49.6309 0.71541 50.2455 0.443377C50.8802 0.151193 51.6661 0 52.6031 0C53.0766 0 53.5703 0.0301816 54.0741 0.0805581C54.598 0.120859 55.0816 0.19145 55.5451 0.272053C56.0186 0.352655 56.4115 0.423153 56.7238 0.49368L56.6635 1.6927C56.3511 1.63225 55.9682 1.57177 55.5048 1.53146C55.0514 1.47101 54.5779 1.42061 54.0943 1.38031C53.6207 1.32993 53.1875 1.30984 52.7845 1.30984C52.0691 1.30984 51.4847 1.41053 51.0313 1.62211C50.5679 1.82361 50.2152 2.1461 49.9533 2.57933C49.7014 3.0025 49.5201 3.53646 49.4092 4.19136C49.3185 4.83618 49.2682 5.60194 49.2682 6.49864C49.2682 7.6573 49.3589 8.61444 49.5402 9.38016C49.7216 10.1459 50.0641 10.71 50.5578 11.0828C51.0616 11.4455 51.7971 11.6269 52.7542 11.6269C53.0263 11.6269 53.3285 11.6168 53.6409 11.5967C53.9532 11.5664 54.2555 11.5363 54.5477 11.506C54.8499 11.4657 55.0917 11.4254 55.2932 11.3952V7.6069H53.258V6.31723H56.7238V12.4833C56.5123 12.5135 56.2403 12.5639 55.9078 12.6042C55.5652 12.6546 55.2025 12.705 54.8197 12.7554C54.4267 12.8057 54.0439 12.8359 53.661 12.8662C53.2782 12.8964 52.9457 12.9166 52.6434 12.9166ZM63.7262 12.9166C62.8094 12.9166 62.0236 12.7856 61.3687 12.5136C60.7138 12.2516 60.21 11.8284 59.8574 11.2441C59.5249 10.6597 59.3536 9.87376 59.3536 8.90653V0.20158H60.8044V8.94687C60.8044 9.90402 61.0563 10.5892 61.5701 11.0124C62.084 11.4254 62.8094 11.6269 63.7262 11.6269C64.6935 11.6269 65.439 11.4254 65.9528 11.0124C66.4768 10.5892 66.7387 9.90402 66.7387 8.94687V0.20158H68.1895V8.90653C68.1895 9.86368 68.0083 10.6395 67.6556 11.234C67.3231 11.8183 66.8194 12.2516 66.1544 12.5136C65.4895 12.7856 64.6834 12.9166 63.7262 12.9166ZM71.1316 12.7352V0.20158H73.7612L77.2272 10.7201L80.7132 0.20158H83.3428V12.7352H81.892V1.74301H81.62L78.0432 12.2818H76.4312L72.8544 1.74301H72.5825V12.7352H71.1316ZM86.3856 12.7352V0.20158H90.9699C91.8867 0.20158 92.6424 0.35266 93.2368 0.654919C93.8313 0.947102 94.2745 1.39037 94.5667 1.99489C94.8488 2.58933 95 3.34498 95 4.26183C95 5.16861 94.8488 5.94446 94.5667 6.58928C94.2745 7.21395 93.8313 7.69751 93.2368 8.04007C92.6424 8.36248 91.8867 8.52366 90.9699 8.52366H87.8364V12.7352H86.3856ZM87.8364 7.25429H90.9699C91.8666 7.25429 92.5113 7.00238 92.9143 6.47847C93.3073 5.95455 93.5088 5.21898 93.5088 4.26183C93.5088 3.2946 93.3073 2.58936 92.9143 2.14604C92.5113 1.69265 91.8666 1.47095 90.9699 1.47095H87.8364V7.25429Z" fill="white"/>
</svg>
